<svg width="244" height="48" viewBox="0 0 244 48" fill="none" xmlns="http://www.w3.org/2000/svg">
<path d="M9.875 39V9.90909H22.4318C24.5909 9.90909 26.4801 10.3021 28.0994 11.0881C29.7188 11.8741 30.9782 13.0057 31.8778 14.483C32.7775 15.9602 33.2273 17.7311 33.2273 19.7955C33.2273 21.8788 32.7633 23.6354 31.8352 25.0653C30.9167 26.4953 29.6241 27.5748 27.9574 28.304C26.3002 29.0331 24.3636 29.3977 22.1477 29.3977H14.6477V23.2614H20.5568C21.4848 23.2614 22.2756 23.1477 22.929 22.9205C23.5919 22.6837 24.0985 22.3097 24.4489 21.7983C24.8087 21.2869 24.9886 20.6193 24.9886 19.7955C24.9886 18.9621 24.8087 18.285 24.4489 17.7642C24.0985 17.2339 23.5919 16.8456 22.929 16.5994C22.2756 16.3437 21.4848 16.2159 20.5568 16.2159H17.7727V39H9.875ZM26.9205 25.6477L34.1932 39H25.6136L18.5114 25.6477H26.9205ZM36.7074 39V17.1818H44.5483V39H36.7074ZM40.6278 14.9091C39.5672 14.9091 38.6581 14.5587 37.9006 13.858C37.143 13.1572 36.7642 12.3144 36.7642 11.3295C36.7642 10.3447 37.143 9.50189 37.9006 8.80114C38.6581 8.10038 39.5672 7.75 40.6278 7.75C41.6979 7.75 42.607 8.10038 43.3551 8.80114C44.1127 9.50189 44.4915 10.3447 44.4915 11.3295C44.4915 12.3144 44.1127 13.1572 43.3551 13.858C42.607 14.5587 41.6979 14.9091 40.6278 14.9091ZM61.6115 17.1818V22.8636H47.0092V17.1818H61.6115ZM49.7933 39V16.5568C49.7933 14.7576 50.1153 13.2661 50.7592 12.0824C51.4032 10.8987 52.3123 10.0133 53.4865 9.42614C54.6607 8.83901 56.0433 8.54545 57.6342 8.54545C58.6286 8.54545 59.5945 8.62121 60.532 8.77273C61.4789 8.92424 62.1797 9.05682 62.6342 9.17045L61.4979 14.7955C61.2138 14.7102 60.8823 14.6439 60.5036 14.5966C60.1248 14.5398 59.7933 14.5114 59.5092 14.5114C58.7706 14.5114 58.2734 14.6676 58.0178 14.9801C57.7621 15.2926 57.6342 15.7045 57.6342 16.2159V39H49.7933ZM77.7053 17.1818V22.8636H63.103V17.1818H77.7053ZM65.8871 39V16.5568C65.8871 14.7576 66.209 13.2661 66.853 12.0824C67.4969 10.8987 68.406 10.0133 69.5803 9.42614C70.7545 8.83901 72.1371 8.54545 73.728 8.54545C74.7223 8.54545 75.6882 8.62121 76.6257 8.77273C77.5727 8.92424 78.2734 9.05682 78.728 9.17045L77.5916 14.7955C77.3075 14.7102 76.9761 14.6439 76.5973 14.5966C76.2185 14.5398 75.8871 14.5114 75.603 14.5114C74.8643 14.5114 74.3672 14.6676 74.1115 14.9801C73.8558 15.2926 73.728 15.7045 73.728 16.2159V39H65.8871Z" fill="white"/>
<path d="M100.938 19.6364H118L96.0625 48V28.3636H79L100.938 0V19.6364Z" fill="white"/>
<path d="M119.875 39V9.90909H132.432C134.591 9.90909 136.48 10.3021 138.099 11.0881C139.719 11.8741 140.978 13.0057 141.878 14.483C142.777 15.9602 143.227 17.7311 143.227 19.7955C143.227 21.8788 142.763 23.6354 141.835 25.0653C140.917 26.4953 139.624 27.5748 137.957 28.304C136.3 29.0331 134.364 29.3977 132.148 29.3977H124.648V23.2614H130.557C131.485 23.2614 132.276 23.1477 132.929 22.9205C133.592 22.6837 134.098 22.3097 134.449 21.7983C134.809 21.2869 134.989 20.6193 134.989 19.7955C134.989 18.9621 134.809 18.285 134.449 17.7642C134.098 17.2339 133.592 16.8456 132.929 16.5994C132.276 16.3437 131.485 16.2159 130.557 16.2159H127.773V39H119.875ZM136.92 25.6477L144.193 39H135.614L128.511 25.6477H136.92ZM152.787 39.3409C151.395 39.3409 150.164 39.1136 149.094 38.6591C148.033 38.1951 147.2 37.4943 146.594 36.5568C145.988 35.6193 145.685 34.4261 145.685 32.9773C145.685 31.7841 145.888 30.7661 146.295 29.9233C146.703 29.071 147.271 28.375 148 27.8352C148.729 27.2955 149.577 26.8835 150.543 26.5994C151.518 26.3153 152.569 26.1307 153.696 26.0455C154.918 25.9508 155.898 25.8371 156.636 25.7045C157.384 25.5625 157.924 25.3684 158.256 25.1222C158.587 24.8665 158.753 24.5303 158.753 24.1136V24.0568C158.753 23.4886 158.535 23.053 158.099 22.75C157.664 22.447 157.105 22.2955 156.423 22.2955C155.675 22.2955 155.064 22.4612 154.591 22.7926C154.127 23.1146 153.848 23.6117 153.753 24.2841H146.537C146.632 22.9583 147.053 21.7367 147.801 20.6193C148.559 19.4924 149.662 18.5928 151.111 17.9205C152.56 17.2386 154.368 16.8977 156.537 16.8977C158.099 16.8977 159.501 17.0824 160.741 17.4517C161.982 17.8116 163.038 18.3182 163.909 18.9716C164.78 19.6155 165.443 20.3731 165.898 21.2443C166.362 22.1061 166.594 23.0436 166.594 24.0568V39H159.264V35.9318H159.094C158.658 36.7462 158.128 37.4044 157.503 37.9062C156.887 38.4081 156.182 38.7727 155.386 39C154.6 39.2273 153.734 39.3409 152.787 39.3409ZM155.344 34.3977C155.94 34.3977 156.499 34.2746 157.02 34.0284C157.55 33.7822 157.981 33.4271 158.312 32.9631C158.644 32.4991 158.81 31.9356 158.81 31.2727V29.4545C158.601 29.5398 158.379 29.6203 158.142 29.696C157.915 29.7718 157.669 29.8428 157.403 29.9091C157.148 29.9754 156.873 30.0369 156.58 30.0938C156.295 30.1506 155.997 30.2027 155.685 30.25C155.079 30.3447 154.581 30.5009 154.193 30.7188C153.814 30.9271 153.53 31.1875 153.341 31.5C153.161 31.803 153.071 32.1439 153.071 32.5227C153.071 33.1288 153.284 33.5928 153.71 33.9148C154.136 34.2367 154.681 34.3977 155.344 34.3977ZM178.238 39.2841C176.685 39.2841 175.255 38.8769 173.948 38.0625C172.651 37.2481 171.609 36.0123 170.823 34.3551C170.047 32.6979 169.658 30.6098 169.658 28.0909C169.658 25.4583 170.066 23.3182 170.88 21.6705C171.704 20.0227 172.764 18.8153 174.062 18.0483C175.369 17.2812 176.742 16.8977 178.181 16.8977C179.261 16.8977 180.208 17.0871 181.022 17.4659C181.836 17.8352 182.518 18.3324 183.067 18.9574C183.617 19.5729 184.033 20.25 184.317 20.9886H184.431V9.90909H192.272V39H184.488V35.4205H184.317C184.014 36.1591 183.579 36.822 183.011 37.4091C182.452 37.9867 181.77 38.446 180.965 38.7869C180.17 39.1184 179.261 39.2841 178.238 39.2841ZM181.136 33.2614C181.855 33.2614 182.471 33.053 182.982 32.6364C183.503 32.2102 183.901 31.6136 184.175 30.8466C184.46 30.0701 184.602 29.1515 184.602 28.0909C184.602 27.0114 184.46 26.0881 184.175 25.321C183.901 24.5445 183.503 23.9527 182.982 23.5455C182.471 23.1288 181.855 22.9205 181.136 22.9205C180.416 22.9205 179.8 23.1288 179.289 23.5455C178.787 23.9527 178.399 24.5445 178.124 25.321C177.859 26.0881 177.727 27.0114 177.727 28.0909C177.727 29.1705 177.859 30.0985 178.124 30.875C178.399 31.642 178.787 32.2339 179.289 32.6506C179.8 33.0578 180.416 33.2614 181.136 33.2614ZM202.201 39.3409C200.809 39.3409 199.578 39.1136 198.508 38.6591C197.447 38.1951 196.614 37.4943 196.008 36.5568C195.402 35.6193 195.099 34.4261 195.099 32.9773C195.099 31.7841 195.302 30.7661 195.71 29.9233C196.117 29.071 196.685 28.375 197.414 27.8352C198.143 27.2955 198.991 26.8835 199.957 26.5994C200.932 26.3153 201.983 26.1307 203.11 26.0455C204.332 25.9508 205.312 25.8371 206.05 25.7045C206.799 25.5625 207.338 25.3684 207.67 25.1222C208.001 24.8665 208.167 24.5303 208.167 24.1136V24.0568C208.167 23.4886 207.949 23.053 207.513 22.75C207.078 22.447 206.519 22.2955 205.837 22.2955C205.089 22.2955 204.478 22.4612 204.005 22.7926C203.541 23.1146 203.262 23.6117 203.167 24.2841H195.951C196.046 22.9583 196.467 21.7367 197.215 20.6193C197.973 19.4924 199.076 18.5928 200.525 17.9205C201.974 17.2386 203.782 16.8977 205.951 16.8977C207.513 16.8977 208.915 17.0824 210.156 17.4517C211.396 17.8116 212.452 18.3182 213.323 18.9716C214.194 19.6155 214.857 20.3731 215.312 21.2443C215.776 22.1061 216.008 23.0436 216.008 24.0568V39H208.678V35.9318H208.508C208.072 36.7462 207.542 37.4044 206.917 37.9062C206.301 38.4081 205.596 38.7727 204.8 39C204.014 39.2273 203.148 39.3409 202.201 39.3409ZM204.758 34.3977C205.354 34.3977 205.913 34.2746 206.434 34.0284C206.964 33.7822 207.395 33.4271 207.727 32.9631C208.058 32.4991 208.224 31.9356 208.224 31.2727V29.4545C208.015 29.5398 207.793 29.6203 207.556 29.696C207.329 29.7718 207.083 29.8428 206.817 29.9091C206.562 29.9754 206.287 30.0369 205.994 30.0938C205.71 30.1506 205.411 30.2027 205.099 30.25C204.493 30.3447 203.996 30.5009 203.607 30.7188C203.228 30.9271 202.944 31.1875 202.755 31.5C202.575 31.803 202.485 32.1439 202.485 32.5227C202.485 33.1288 202.698 33.5928 203.124 33.9148C203.55 34.2367 204.095 34.3977 204.758 34.3977ZM219.754 39V17.1818H227.368V21.3295H227.595C227.993 19.7955 228.623 18.6733 229.484 17.9631C230.356 17.2528 231.374 16.8977 232.538 16.8977C232.879 16.8977 233.215 16.9261 233.547 16.983C233.888 17.0303 234.214 17.1013 234.527 17.196V23.8864C234.139 23.7538 233.661 23.6544 233.092 23.5881C232.524 23.5218 232.036 23.4886 231.629 23.4886C230.862 23.4886 230.171 23.6638 229.555 24.0142C228.949 24.3551 228.471 24.8381 228.121 25.4631C227.77 26.0786 227.595 26.803 227.595 27.6364V39H219.754Z" fill="white"/>
</svg>
